<svg id="svg1" version="1.1" width="120"  height="100" viewBox="0 0 612 612" xmlns="http://www.w3.org/2000/svg">
<style>
text {font-family: Arial; font-size: 60px; font-weight: bold;}
text.segment-label {fill: white;}
</style>

<!-- Star -->
<g transform="scale(0.25) translate(765,0)">
<path fill="#FED42D" d="M511.266,197.258c-1.764-5.432-6.458-9.389-12.108-10.209l-158.722-23.066L269.452,20.156 c-2.527-5.121-7.741-8.361-13.451-8.361c-5.709,0-10.924,3.24-13.451,8.361l-70.988,143.826L12.843,187.049 c-5.649,0.82-10.345,4.777-12.108,10.207c-1.765,5.432-0.293,11.393,3.795,15.377l114.848,111.955L92.27,482.67 c-0.965,5.629,1.349,11.315,5.968,14.672c4.619,3.355,10.741,3.799,15.797,1.141L256,423.845l141.961,74.637 c2.195,1.154,4.591,1.723,6.979,1.723c3.11,0,6.206-0.965,8.818-2.863c4.619-3.357,6.933-9.045,5.968-14.672L392.61,324.588 l114.86-111.955C511.559,208.648,513.031,202.687,511.266,197.258z"></path>
<path fill="#FCBF29" d="M511.266,197.258c-1.764-5.432-6.458-9.389-12.108-10.209l-158.722-23.066L269.452,20.156 c-2.527-5.121-7.741-8.361-13.451-8.361v412.051l141.961,74.637c2.195,1.154,4.591,1.723,6.979,1.723 c3.11,0,6.206-0.965,8.818-2.863c4.619-3.357,6.933-9.045,5.968-14.672L392.61,324.588l114.86-111.955 C511.559,208.648,513.031,202.687,511.266,197.258z"></path>
</g>

<!-- Laurel -->
<g fill="#0a9b00" transform="translate(0,20)">
  <path d="m187.067 407.967c-53.796-26.15-88.908-81.277-88.908-142.044 0-46.492 20.304-90.284 55.733-120.359l10.802-6.237c28.864-16.664 38.789-53.704 22.124-82.567l-19.153-33.173-25.002 14.435c-28.863 16.665-38.788 53.704-22.124 82.567l5.572 9.651c-4.691 4.487-9.129 9.185-13.294 14.082-5.255-10.384-13.388-19.055-23.584-24.942l-33.174-19.153-14.435 25.003c-8.073 13.982-10.217 30.271-6.038 45.866s14.18 28.629 28.18 36.712l11.551 6.648c-1.656 5.828-3.022 11.751-4.111 17.746-9.75-6.359-21.131-9.798-32.901-9.798h-38.305v28.87c0 33.329 27.115 60.443 60.464 60.443l13.299-.018c1.475 5.904 3.237 11.725 5.282 17.448-11.611-.633-23.165 2.071-33.332 7.942l-33.173 19.152 14.435 25.002c8.072 13.982 21.106 23.983 36.701 28.162 5.207 1.395 10.488 2.085 15.738 2.085 10.476 0 20.82-2.75 30.146-8.134l11.531-6.68c4.242 4.388 8.681 8.559 13.308 12.495-10.249 5.219-18.977 13.306-24.878 23.526l-19.153 33.173 25.002 14.435c9.185 5.303 19.62 8.105 30.179 8.105 21.549 0 41.623-11.583 52.398-30.248l21.147-36.745z"></path>
  <path d="m451.554 311.717c33.328 0 60.443-27.115 60.443-60.443v-28.87h-38.306c-11.769 0-23.151 3.439-32.901 9.798-1.089-5.995-2.455-11.918-4.111-17.746l11.569-6.658c13.982-8.072 23.983-21.106 28.162-36.702 4.179-15.595 2.034-31.884-6.038-45.866l-14.436-25.001-33.173 19.153c-10.196 5.886-18.33 14.558-23.584 24.942-4.165-4.897-8.603-9.595-13.294-14.082l5.572-9.651c8.072-13.982 10.217-30.271 6.038-45.866s-14.18-28.629-28.162-36.702l-25.002-14.436-19.151 33.173c-16.664 28.863-6.74 65.903 22.123 82.568l10.806 6.238c35.427 30.076 55.73 73.867 55.73 120.357 0 60.767-35.113 115.895-88.909 142.044l-32.028 13.45 21.157 36.763c10.765 18.645 30.839 30.229 52.388 30.229h.003c10.557 0 20.992-2.803 30.177-8.105l25.002-14.435-19.152-33.174c-5.901-10.22-14.629-18.306-24.878-23.526 4.627-3.936 9.065-8.106 13.308-12.495l11.549 6.69c9.314 5.377 19.649 8.124 30.124 8.124 5.249 0 10.535-.69 15.741-2.085 15.596-4.179 28.63-14.18 36.702-28.162l14.437-25.002-33.175-19.153c-10.168-5.871-21.722-8.574-33.332-7.941 2.045-5.723 3.807-11.544 5.282-17.448z"></path>
</g>

<!-- 25 years -->
<text x="140" y="320" style="font-size:200px; font-weight:bold;" fill="darkred">26
<tspan x="150" dy="80" style="font-size:130px;">лет</tspan>
</text>

<!-- Ribbon -->
<g transform="scale(2) translate(-90,10)" stroke="#000" stroke-width="0.25">
  <polygon fill="red" points="165.309,265.233 91.893,295.183 100.143,269.683 72.893,263.933 149.643,233.683"/>
  <polygon fill="darkred" points="165.309,265.233 121.959,265.233 101.855,222.51 147.309,218.016"/>
  <polygon fill="red" points="271.142,265.233 344.559,295.183 336.309,269.683 363.559,263.933 286.809,233.683"/>
  <polygon fill="darkred" points="271.142,265.233 314.492,265.233 334.596,222.51 289.142,218.016"/>
  <path fill="red" d="M314.808,265.233c-61.071-28.738-131.778-28.738-192.849,0
        c-6.701-14.241-13.403-28.482-20.104-42.723c73.804-34.729,159.252-34.729,233.057,0
        C328.21,236.751,321.509,250.992,314.808,265.233z"/>
</g>

<g class="sector-g">
  <path id="sectorPath" d="M 20 540 A 500 500 0 0 1 495 540 Z" fill="none"></path>
  <text class="segment-label" x="500" y="0" >
    <textPath xmlns:xlink="http://www.w3.org/1999/xlink" xlink:href="#sectorPath" text-anchor="middle" startOffset="-26%">SOURCES.RU</textPath>
  </text>
</g>

</svg>